name rise30.2954peak35.7071fall66.7804.mot
datacolumns 19
datarows 20
range 4.26999000000000 4.30165900000000
endheader
time	ground_force1_vx	ground_force1_vy	ground_force1_vz	ground_force1_px	ground_force1_py	ground_force1_pz	ground_force2_vx	ground_force2_vy	ground_force2_vz	ground_force2_px	ground_force2_py	ground_force2_pz	ground_torque1_x	ground_torque1_y	ground_torque1_z	ground_torque2_x	ground_torque2_y	ground_torque2_z	
4.26999000000000	-42.26035900000000	787.56420800000001	49.88113000000000	0.10157700000000	0.00000000000000	0.10774800000000	-2.91873500000000	10.85036600000000	2.55994100000000	0.00000000000000	0.00000000000000	0.00000000000000	0.00000000000000	19.12975000000000	0.00000000000000	0.00000000000000	0.58944100000000	0.00000000000000	
4.27165800000000	-42.78024600000000	785.99042099999997	49.74921400000000	0.10078600000000	0.00000000000000	0.10763800000000	-3.86866300000000	15.50989300000000	3.49446400000000	0.00000000000000	0.00000000000000	0.00000000000000	0.00000000000000	19.08118100000000	0.00000000000000	0.00000000000000	0.82315400000000	0.00000000000000	
4.27332600000000	-43.31894200000000	784.36436100000003	49.60968000000000	0.10000100000000	0.00000000000000	0.10752500000000	-4.86211700000000	20.75055200000000	4.50367300000000	0.00000000000000	0.00000000000000	0.00000000000000	0.00000000000000	19.03563500000000	0.00000000000000	0.00000000000000	1.08059900000000	0.00000000000000	
4.27498800000000	-43.87675700000000	782.68425300000001	49.46239800000000	0.09922300000000	0.00000000000000	0.10741000000000	-5.86182600000000	26.47524600000000	5.55796300000000	0.30166200000000	0.00000000000000	-0.08795200000000	0.00000000000000	18.99319900000000	0.00000000000000	0.00000000000000	2.51651800000000	0.00000000000000	
4.27665100000000	-44.45394700000000	780.94814899999994	49.30723100000000	0.09845200000000	0.00000000000000	0.10729400000000	-6.82872500000000	32.56985000000000	6.62509100000000	0.30743300000000	0.00000000000000	-0.08814300000000	0.00000000000000	18.95394900000000	0.00000000000000	0.00000000000000	3.07542900000000	0.00000000000000	
4.27832000000000	-45.05070700000000	779.15392899999995	49.14403600000000	0.09768700000000	0.00000000000000	0.10717500000000	-7.72487900000000	38.91298200000000	7.67264200000000	0.31264600000000	0.00000000000000	-0.08833000000000	0.00000000000000	18.91794600000000	0.00000000000000	0.00000000000000	3.64502900000000	0.00000000000000	
4.27998700000000	-45.66717100000000	777.29930200000001	48.97266300000000	0.09692800000000	0.00000000000000	0.10705400000000	-8.51624400000000	45.38602100000000	8.67044400000000	0.31738400000000	0.00000000000000	-0.08851400000000	0.00000000000000	18.88523800000000	0.00000000000000	0.00000000000000	4.21032900000000	0.00000000000000	
4.28165100000000	-46.30340900000000	775.38181099999997	48.79295500000000	0.09617600000000	0.00000000000000	0.10693100000000	-9.17488200000000	51.88204600000000	9.59258400000000	0.32171000000000	0.00000000000000	-0.08869700000000	0.00000000000000	18.85586100000000	0.00000000000000	0.00000000000000	4.75768700000000	0.00000000000000	
4.28332500000000	-46.95942000000000	773.39883599999996	48.60475100000000	0.09543100000000	0.00000000000000	0.10680600000000	-9.68045200000000	58.31274200000000	10.41886600000000	0.32567700000000	0.00000000000000	-0.08887800000000	0.00000000000000	18.82983400000000	0.00000000000000	0.00000000000000	5.27564500000000	0.00000000000000	
4.28498600000000	-47.63513600000000	771.34759599999995	48.40788100000000	0.09469200000000	0.00000000000000	0.10668000000000	-10.02086800000000	64.61279100000000	11.13558300000000	0.32933000000000	0.00000000000000	-0.08905800000000	0.00000000000000	18.80716300000000	0.00000000000000	0.00000000000000	5.75547300000000	0.00000000000000	
4.28666600000000	-48.33041400000000	769.22516099999996	48.20217200000000	0.09396000000000	0.00000000000000	0.10655100000000	-10.19219400000000	70.74169300000000	11.73564700000000	0.33270400000000	0.00000000000000	-0.08923800000000	0.00000000000000	18.78783900000000	0.00000000000000	0.00000000000000	6.19140700000000	0.00000000000000	
4.28831900000000	-49.04503600000000	767.02845300000001	47.98744600000000	0.09323400000000	0.00000000000000	0.10642100000000	-10.19788100000000	76.68323700000001	12.21815800000000	0.33583000000000	0.00000000000000	-0.08941900000000	0.00000000000000	18.77183700000000	0.00000000000000	0.00000000000000	6.58060700000000	0.00000000000000	
4.28998900000000	-49.77870700000000	764.75425600000005	47.76351800000000	0.09251400000000	0.00000000000000	0.10628900000000	-10.04753700000000	82.44306500000000	12.58753200000000	0.33873300000000	0.00000000000000	-0.08960000000000	0.00000000000000	18.75911700000000	0.00000000000000	0.00000000000000	6.92287900000000	0.00000000000000	
4.29165700000000	-50.53105100000000	762.39922500000000	47.53020300000000	0.09180000000000	0.00000000000000	0.10615600000000	-9.75539100000000	88.04485699999999	12.85235000000000	0.34143600000000	0.00000000000000	-0.08978200000000	0.00000000000000	18.74962200000000	0.00000000000000	0.00000000000000	7.22022300000000	0.00000000000000	
4.29332400000000	-51.30161000000000	759.95989299999997	47.28730900000000	0.09109200000000	0.00000000000000	0.10602100000000	-9.33865000000000	93.52568700000000	13.02405300000000	0.34395700000000	0.00000000000000	-0.08996500000000	0.00000000000000	18.74328200000000	0.00000000000000	0.00000000000000	7.47628400000000	0.00000000000000	
4.29498500000000	-52.08984300000000	757.43268599999999	47.03464500000000	0.09039000000000	0.00000000000000	0.10588400000000	-8.81588600000000	98.93109300000000	13.11564500000000	0.34631200000000	0.00000000000000	-0.09014800000000	0.00000000000000	18.74000800000000	0.00000000000000	0.00000000000000	7.69576000000000	0.00000000000000	
4.29665700000000	-52.89512400000000	754.81392800000003	46.77201600000000	0.08969400000000	0.00000000000000	0.10574600000000	-8.20559800000000	104.31029900000000	13.14047500000000	0.34851600000000	0.00000000000000	-0.09033300000000	0.00000000000000	18.73969600000000	0.00000000000000	0.00000000000000	7.88382900000000	0.00000000000000	
4.29832500000000	-53.71673800000000	752.09985700000004	46.49922800000000	0.08900300000000	0.00000000000000	0.10560700000000	-7.52500900000000	109.71194700000000	13.11121500000000	0.35058000000000	0.00000000000000	-0.09051900000000	0.00000000000000	18.74222600000000	0.00000000000000	0.00000000000000	8.04563800000000	0.00000000000000	
4.29999000000000	-54.55388500000000	749.28663900000004	46.21608900000000	0.08831800000000	0.00000000000000	0.10546600000000	-6.78918000000000	115.18059500000000	13.03905300000000	0.35251500000000	0.00000000000000	-0.09070500000000	0.00000000000000	18.74746100000000	0.00000000000000	0.00000000000000	8.18587900000000	0.00000000000000	
4.30165900000000	-55.40567400000000	746.37037399999997	45.92240400000000	0.08763700000000	0.00000000000000	0.10532500000000	-6.01043000000000	120.75410599999999	12.93314600000000	0.35433000000000	0.00000000000000	-0.09089300000000	0.00000000000000	18.75524800000000	0.00000000000000	0.00000000000000	8.30848400000000	0.00000000000000	
